<svg width="480" height="260" viewBox="0 0 480 260" xmlns="http://www.w3.org/2000/svg">
  <rect width="480" height="260" rx="10" fill="#000000" />
  <text x="20" y="24" font-family="'Segoe UI', Helvetica, Arial, sans-serif" font-size="14" font-weight="600" fill="#ffffff">Languages</text>
  <g transform="translate(0, 10)">
    <path d="M 130,130 L 130.00,30.00 A 100,100 0 1 1 49.16,188.87 Z" fill="#3178c6" stroke="#000000" stroke-width="1" />
    <path d="M 130,130 L 49.16,188.87 A 100,100 0 0 1 68.25,51.34 Z" fill="#f1e05a" stroke="#000000" stroke-width="1" />
    <path d="M 130,130 L 68.25,51.34 A 100,100 0 0 1 115.00,31.13 Z" fill="#dea584" stroke="#000000" stroke-width="1" />
    <path d="M 130,130 L 115.00,31.13 A 100,100 0 0 1 130.00,30.00 Z" fill="#6e7681" stroke="#000000" stroke-width="1" />
  </g>
  <g>
      <rect x="270" y="28" width="14" height="14" rx="2" fill="#3178c6" />
      <text x="292" y="39" font-family="'Segoe UI', Helvetica, Arial, sans-serif" font-size="13" fill="#ffffff">TypeScript (65.0%)</text>
      <rect x="270" y="54" width="14" height="14" rx="2" fill="#f1e05a" />
      <text x="292" y="65" font-family="'Segoe UI', Helvetica, Arial, sans-serif" font-size="13" fill="#ffffff">JavaScript (24.4%)</text>
      <rect x="270" y="80" width="14" height="14" rx="2" fill="#dea584" />
      <text x="292" y="91" font-family="'Segoe UI', Helvetica, Arial, sans-serif" font-size="13" fill="#ffffff">Rust (8.2%)</text>
      <rect x="270" y="106" width="14" height="14" rx="2" fill="#6e7681" />
      <text x="292" y="117" font-family="'Segoe UI', Helvetica, Arial, sans-serif" font-size="13" fill="#ffffff">Other languages (2.4%)</text></g>
</svg>
